<?xml version="1.0" standalone="no"?>
<!DOCTYPE svg PUBLIC "-//W3C//DTD SVG 20010904//EN"
 "http://www.w3.org/TR/2001/REC-SVG-20010904/DTD/svg10.dtd">
<svg version="1.0" xmlns="http://www.w3.org/2000/svg"
 width="612.000000pt" height="612.000000pt" viewBox="0 0 612.000000 612.000000"
 preserveAspectRatio="xMidYMid meet">

<g transform="translate(0.000000,612.000000) scale(0.100000,-0.100000)"
fill="#000000" stroke="none">
<path d="M3616 5589 c-220 -45 -464 -274 -566 -533 -34 -88 -84 -272 -95 -353
-5 -41 -11 -52 -28 -56 -12 -3 -107 -13 -211 -23 -159 -14 -208 -15 -317 -5
-245 22 -402 88 -438 184 -14 37 -1 69 43 102 65 49 39 111 -42 102 -80 -9
-114 -57 -182 -253 -116 -335 -168 -647 -124 -740 40 -84 214 -168 412 -199
23 -4 42 -10 42 -14 0 -4 -32 -52 -72 -106 -99 -137 -143 -225 -158 -315 -28
-163 26 -328 198 -612 39 -65 69 -118 67 -118 -3 0 -29 13 -58 29 -87 49 -190
75 -292 76 -80 0 -95 -3 -136 -27 -93 -55 -262 -269 -347 -440 -55 -109 -59
-131 -33 -157 27 -27 101 -28 151 -3 46 22 53 52 12 52 -38 0 -66 31 -58 64 7
29 63 64 146 92 45 16 85 19 225 18 318 0 503 -66 534 -188 15 -62 8 -73 -57
-86 -169 -34 -316 -89 -440 -167 -96 -59 -352 -271 -453 -374 -156 -158 -181
-290 -65 -334 64 -24 101 -11 101 36 0 27 -6 38 -32 54 -25 15 -32 27 -33 51
0 42 28 74 92 107 104 52 164 62 383 62 291 -1 375 -18 1038 -216 l147 -44 0
-45 c0 -78 -20 -270 -41 -400 -24 -141 -58 -258 -100 -342 -16 -32 -29 -63
-29 -69 0 -16 66 -6 155 23 l69 23 23 72 c35 112 47 230 47 475 l1 228 100 0
c55 0 123 6 152 14 182 49 398 213 641 491 85 96 137 144 247 227 461 347 687
658 777 1071 30 139 33 501 5 642 -84 415 -299 714 -636 884 -222 113 -595
166 -989 141 -106 -7 -195 -10 -198 -7 -7 7 22 127 52 216 80 230 233 435 381
507 48 24 71 29 135 29 62 0 82 -4 104 -21 41 -30 64 -65 71 -108 6 -38 4 -41
-47 -86 -59 -52 -63 -80 -12 -80 66 0 125 100 125 210 -1 108 -42 177 -128
216 -61 28 -182 39 -259 23z m89 -1725 c443 -78 671 -341 715 -827 18 -198
-11 -461 -71 -634 -51 -148 -172 -327 -312 -460 -120 -114 -236 -160 -374
-150 -75 6 -155 31 -450 143 -140 53 -153 59 -153 82 0 14 8 30 17 37 15 11
15 18 5 52 -19 65 -15 106 17 154 45 65 134 135 246 189 265 129 445 93 486
-98 22 -106 -21 -188 -109 -207 -38 -8 -50 -28 -32 -50 43 -52 180 38 234 155
19 41 21 65 22 259 1 118 5 242 9 275 7 72 -6 141 -32 167 -11 12 -45 22 -92
29 -139 20 -303 -18 -444 -101 -90 -53 -228 -192 -281 -282 -21 -37 -41 -65
-43 -63 -9 9 27 1068 43 1263 l6 72 41 6 c137 18 421 13 552 -11z m-761 -186
c8 -245 30 -1648 25 -1652 -2 -2 -53 9 -114 25 -60 16 -164 34 -230 41 -66 6
-122 13 -124 15 -2 1 28 51 66 110 93 143 114 181 156 288 101 254 104 485 9
710 -17 39 -84 183 -151 320 -66 138 -121 253 -121 256 0 3 46 9 103 13 56 4
156 16 222 25 66 10 127 19 136 20 15 1 18 -20 23 -171z"/>
</g>
</svg>
