<?xml version="1.0" encoding="UTF-8"?>
<svg xmlns="http://www.w3.org/2000/svg" viewBox="0 -0.5 33 33" width="500px" height="500px" shape-rendering="crispEdges">
<path stroke="#454946" d="M9 6h1M10 7h1M13 7h2M11 8h5M11 9h5M9 10h2M16 10h2M9 11h2M12 11h3M16 11h2M13 12h2M14 13h1M9 18h1M9 19h1" />
<path stroke="#2b302d" d="M9 7h1M12 7h1M10 8h1M16 8h1M9 9h1M17 9h1M8 11h1M11 11h1M15 11h1M18 11h1M8 12h5M16 12h3M9 13h2M13 13h1M16 13h2M7 14h1M9 14h1M14 14h1M17 14h1M19 14h1M9 17h2M8 18h1M10 20h1" />
<path stroke="#4f5d5c" d="M10 9h1M16 9h1M11 10h5" />
<path stroke="#b7bec4" d="M27 11h4M25 12h2M30 12h1M23 13h2M28 13h1M21 14h2M26 14h1M28 14h1M24 15h1M26 15h1M24 16h1" />
<path stroke="#b08960" d="M15 12h1M13 14h1" />
<path stroke="#e1e9ec" d="M27 12h1M25 13h1M23 14h1M22 16h1" />
<path stroke="#f4fafb" d="M28 12h2M26 13h2M24 14h2M22 15h2" />
<path stroke="#3d3e3a" d="M7 13h1M19 13h1M8 15h1M18 15h1M9 16h1M17 16h1" />
<path stroke="#eec7a6" d="M8 13h1M18 13h1M10 16h1M16 16h1M12 17h3M10 27h1" />
<path stroke="#05080b" d="M11 13h2M15 13h1" />
<path stroke="#767f7f" d="M29 13h1M27 14h1M25 15h1M23 16h1" />
<path stroke="#bf916a" d="M8 14h1M18 14h1M9 15h1M17 15h1" />
<path stroke="#f8d7bb" d="M10 14h1M12 14h1M16 14h1M10 15h1M12 15h3M16 15h1M11 16h5" />
<path stroke="#544d01" d="M11 14h1M15 14h1" />
<path stroke="#f6ca54" d="M20 14h1M19 15h1M20 16h2" />
<path stroke="#c19f01" d="M11 15h1M15 15h1" />
<path stroke="#faec88" d="M20 15h1" />
<path stroke="#e58835" d="M21 15h1M20 17h2" />
<path stroke="#e8d880" d="M18 16h1" />
<path stroke="#181818" d="M8 17h1M11 17h1M15 17h1M17 17h1M19 17h1M14 18h1M19 18h1M8 19h1M17 19h2M7 20h1M9 20h1M15 20h2M7 21h1M11 21h1M6 22h1M9 22h2" />
<path stroke="#072d65" d="M16 17h1M12 18h1M15 18h1M18 18h1M10 19h1M10 21h1M7 22h2" />
<path stroke="#0048a8" d="M18 17h1M11 18h1M13 18h1M16 18h2M14 19h1M12 20h1" />
<path stroke="#cf5c26" d="M22 17h1M21 18h2M22 19h1" />
<path stroke="#1560be" d="M10 18h1M12 19h1M16 19h1M8 20h1M11 20h1M13 20h1M9 21h1" />
<path stroke="#f8d8c0" d="M20 18h1M7 23h1" />
<path stroke="#4b79d7" d="M11 19h1M13 19h1M15 19h1M14 20h1M8 21h1" />
<path stroke="#d0a890" d="M19 19h2M8 23h1M7 24h2" />
<path stroke="#202020" d="M21 19h1M19 20h2M6 23h1M9 23h1M6 24h1M9 24h1M7 25h2" />
<path stroke="#041837" d="M17 20h2M17 21h2M18 22h2M18 23h2M18 24h2" />
<path stroke="#a31628" d="M12 21h1M15 21h1" />
<path stroke="#c6c3c3" d="M13 21h1M14 22h1" />
<path stroke="#5e200e" d="M14 21h1M13 22h1M11 24h1M16 24h1" />
<path stroke="#3b0606" d="M16 21h1M11 22h1M16 22h2M10 23h1M12 23h1M15 23h1M17 23h1M10 24h1M17 24h1M9 25h9" />
<path stroke="#d22a2a" d="M12 22h1M15 22h1" />
<path stroke="#792d13" d="M11 23h1M16 23h1" />
<path stroke="#a7a7a7" d="M13 23h2" />
<path stroke="#824a18" d="M12 24h1M15 24h1" />
<path stroke="#757272" d="M13 24h2" />
<path stroke="#1d1c1c" d="M9 26h1M13 26h2M16 26h1" />
<path stroke="#4a4949" d="M10 26h1" />
<path stroke="#363434" d="M11 26h2" />
<path stroke="#282828" d="M15 26h1M11 27h1" />
<path stroke="#201611" d="M17 26h1M14 28h1M18 28h1M15 29h3" />
<path stroke="#826d5b" d="M9 27h1M10 28h1" />
<path stroke="#141414" d="M13 27h1" />
<path stroke="#2e1a0a" d="M14 27h1M18 27h1" />
<path stroke="#74431b" d="M15 27h1M17 27h1M16 28h1" />
<path stroke="#b2592f" d="M16 27h1" />
<path stroke="#2e1f18" d="M8 28h2M12 28h1M12 29h1M8 31h1M12 31h1M9 32h3" />
<path stroke="#7a441b" d="M11 28h1M9 31h1M11 31h1" />
<path stroke="#552f13" d="M15 28h1M17 28h1" />
<path stroke="#1d110c" d="M9 29h1" />
<path stroke="#4d270e" d="M10 29h2" />
<path stroke="#42250f" d="M8 30h1M12 30h1" />
<path stroke="#a66027" d="M9 30h1M11 30h1M10 31h1" />
<path stroke="#ff7f44" d="M10 30h1" />
</svg>
